<?xml version="1.0" encoding="UTF-8"?>
<svg xmlns="http://www.w3.org/2000/svg" width="343.4194258024325" height="171.70971290121625" viewBox="0 0 343.4194258024325 171.70971290121625">
<!-- packing-meta: {"inner_ratio": [1.0, 1.0], "outer_ratio": [2.0, 1.0], "shape_size": [30.0, 30.0], "container_size": [343.4194258024325, 171.70971290121625], "num_shapes": 56, "snap_symmetry": 1.5707963267948966, "best_density": 0.8546943176802433, "format": "rect"} -->

  <rect x="0" y="0" width="343.4194258024325" height="171.70971290121625" fill="none" stroke="#3c3c50" stroke-width="2" data-container="true"/>
  <g id="shapes">
    <rect x="77.0574" y="48.6702" width="30.000000" height="30.000000" transform="rotate(310.802045 92.0574 63.6702)" fill="#ccffff" stroke="black" stroke-width="0.2" data-x="520.347647" data-y="442.815388" data-w="30.000000" data-h="30.000000" data-rotation="5.424519"/>
    <rect x="253.4196" y="-0.0000" width="30.000000" height="30.000000" transform="rotate(0.000000 268.4196 15.0000)" fill="#ccffff" stroke="black" stroke-width="0.2" data-x="696.709894" data-y="394.145111" data-w="30.000000" data-h="30.000000" data-rotation="0.000000"/>
    <rect x="193.7028" y="105.5419" width="30.000000" height="30.000000" transform="rotate(221.256304 208.7028 120.5419)" fill="#ccffff" stroke="black" stroke-width="0.2" data-x="636.993049" data-y="499.687057" data-w="30.000000" data-h="30.000000" data-rotation="3.861651"/>
    <rect x="59.9997" y="81.7099" width="30.000000" height="30.000000" transform="rotate(180.000000 74.9997 96.7099)" fill="#ccffff" stroke="black" stroke-width="0.2" data-x="503.290010" data-y="475.854994" data-w="30.000000" data-h="30.000000" data-rotation="3.141593"/>
    <rect x="137.6596" y="31.1799" width="30.000000" height="30.000000" transform="rotate(400.805005 152.6596 46.1799)" fill="#ccffff" stroke="black" stroke-width="0.2" data-x="580.949845" data-y="425.325049" data-w="30.000000" data-h="30.000000" data-rotation="6.995367"/>
    <rect x="194.982" y="57.0738" width="30.000000" height="30.000000" transform="rotate(41.256055 209.982 72.0738)" fill="#ccffff" stroke="black" stroke-width="0.2" data-x="638.272308" data-y="451.218932" data-w="30.000000" data-h="30.000000" data-rotation="0.720054"/>
    <rect x="119.9998" y="111.7096" width="30.000000" height="30.000000" transform="rotate(90.000000 134.9998 126.7096)" fill="#ccffff" stroke="black" stroke-width="0.2" data-x="563.290090" data-y="505.854717" data-w="30.000000" data-h="30.000000" data-rotation="1.570796"/>
    <rect x="156.2541" y="55.5855" width="30.000000" height="30.000000" transform="rotate(40.891425 171.2541 70.5855)" fill="#ccffff" stroke="black" stroke-width="0.2" data-x="599.544419" data-y="449.730613" data-w="30.000000" data-h="30.000000" data-rotation="0.713690"/>
    <rect x="119.6288" y="6.1562" width="30.000000" height="30.000000" transform="rotate(220.802464 134.6288 21.1562)" fill="#ccffff" stroke="black" stroke-width="0.2" data-x="562.919094" data-y="400.301311" data-w="30.000000" data-h="30.000000" data-rotation="3.853730"/>
    <rect x="55.5819" y="26.0281" width="30.000000" height="30.000000" transform="rotate(310.798091 70.5819 41.0281)" fill="#ccffff" stroke="black" stroke-width="0.2" data-x="498.872224" data-y="420.173234" data-w="30.000000" data-h="30.000000" data-rotation="5.424450"/>
    <rect x="283.4194" y="60.8128" width="30.000000" height="30.000000" transform="rotate(360.000000 298.4194 75.8128)" fill="#ccffff" stroke="black" stroke-width="0.2" data-x="726.709717" data-y="454.957903" data-w="30.000000" data-h="30.000000" data-rotation="6.283185"/>
    <rect x="29.9999" y="51.7092" width="30.000000" height="30.000000" transform="rotate(0.000000 44.9999 66.7092)" fill="#ccffff" stroke="black" stroke-width="0.2" data-x="473.290204" data-y="445.854316" data-w="30.000000" data-h="30.000000" data-rotation="0.000000"/>
    <rect x="193.4195" y="0.0003" width="30.000000" height="30.000000" transform="rotate(90.000000 208.4195 15.0003)" fill="#ccffff" stroke="black" stroke-width="0.2" data-x="636.709818" data-y="394.145479" data-w="30.000000" data-h="30.000000" data-rotation="1.570796"/>
    <rect x="223.4196" y="-0.0000" width="30.000000" height="30.000000" transform="rotate(0.000000 238.4196 15.0000)" fill="#ccffff" stroke="black" stroke-width="0.2" data-x="666.709862" data-y="394.145112" data-w="30.000000" data-h="30.000000" data-rotation="0.000000"/>
    <rect x="257.6101" y="86.2841" width="30.000000" height="30.000000" transform="rotate(311.258864 272.6101 101.2841)" fill="#ccffff" stroke="black" stroke-width="0.2" data-x="700.900386" data-y="480.429214" data-w="30.000000" data-h="30.000000" data-rotation="5.432492"/>
    <rect x="59.9998" y="111.7099" width="30.000000" height="30.000000" transform="rotate(0.000000 74.9998 126.7099)" fill="#ccffff" stroke="black" stroke-width="0.2" data-x="503.290039" data-y="505.855002" data-w="30.000000" data-h="30.000000" data-rotation="0.000000"/>
    <rect x="117.3131" y="53.2502" width="30.000000" height="30.000000" transform="rotate(490.805388 132.3131 68.2502)" fill="#ccffff" stroke="black" stroke-width="0.2" data-x="560.603371" data-y="447.395369" data-w="30.000000" data-h="30.000000" data-rotation="8.566170"/>
    <rect x="253.4195" y="30.0001" width="30.000000" height="30.000000" transform="rotate(-180.000000 268.4195 45.0001)" fill="#ccffff" stroke="black" stroke-width="0.2" data-x="696.709794" data-y="424.145213" data-w="30.000000" data-h="30.000000" data-rotation="-3.141593"/>
    <rect x="89.9998" y="111.7098" width="30.000000" height="30.000000" transform="rotate(90.000000 104.9998 126.7098)" fill="#ccffff" stroke="black" stroke-width="0.2" data-x="533.290074" data-y="505.854970" data-w="30.000000" data-h="30.000000" data-rotation="1.570796"/>
    <rect x="78.4727" y="6.1561" width="30.000000" height="30.000000" transform="rotate(220.798912 93.4727 21.1561)" fill="#ccffff" stroke="black" stroke-width="0.2" data-x="521.762978" data-y="400.301202" data-w="30.000000" data-h="30.000000" data-rotation="3.853668"/>
    <rect x="99.1523" y="28.1118" width="30.000000" height="30.000000" transform="rotate(130.802139 114.1523 43.1118)" fill="#ccffff" stroke="black" stroke-width="0.2" data-x="542.442621" data-y="422.256986" data-w="30.000000" data-h="30.000000" data-rotation="2.282928"/>
    <rect x="29.9997" y="111.7094" width="30.000000" height="30.000000" transform="rotate(0.000000 44.9997 126.7094)" fill="#ccffff" stroke="black" stroke-width="0.2" data-x="473.290002" data-y="505.854528" data-w="30.000000" data-h="30.000000" data-rotation="0.000000"/>
    <rect x="136.5598" y="78.2170" width="30.000000" height="30.000000" transform="rotate(400.893012 151.5598 93.2170)" fill="#ccffff" stroke="black" stroke-width="0.2" data-x="579.850046" data-y="472.362183" data-w="30.000000" data-h="30.000000" data-rotation="6.996903"/>
    <rect x="283.4196" y="30.5322" width="30.000000" height="30.000000" transform="rotate(180.000000 298.4196 45.5322)" fill="#ccffff" stroke="black" stroke-width="0.2" data-x="726.709880" data-y="424.677311" data-w="30.000000" data-h="30.000000" data-rotation="3.141593"/>
    <rect x="237.2863" y="63.9597" width="30.000000" height="30.000000" transform="rotate(311.258463 252.2863 78.9597)" fill="#ccffff" stroke="black" stroke-width="0.2" data-x="680.576610" data-y="458.104832" data-w="30.000000" data-h="30.000000" data-rotation="5.432485"/>
    <rect x="234.07" y="105.5416" width="30.000000" height="30.000000" transform="rotate(671.257930 249.07 120.5416)" fill="#ccffff" stroke="black" stroke-width="0.2" data-x="677.360303" data-y="499.686696" data-w="30.000000" data-h="30.000000" data-rotation="11.715661"/>
    <rect x="175.3986" y="79.8018" width="30.000000" height="30.000000" transform="rotate(401.256152 190.3986 94.8018)" fill="#ccffff" stroke="black" stroke-width="0.2" data-x="618.688886" data-y="473.946935" data-w="30.000000" data-h="30.000000" data-rotation="7.003241"/>
    <rect x="157.2632" y="8.4704" width="30.000000" height="30.000000" transform="rotate(130.803514 172.2632 23.4704)" fill="#ccffff" stroke="black" stroke-width="0.2" data-x="600.553531" data-y="402.615592" data-w="30.000000" data-h="30.000000" data-rotation="2.282952"/>
    <rect x="96.1503" y="75.3591" width="30.000000" height="30.000000" transform="rotate(40.579679 111.1503 90.3591)" fill="#ccffff" stroke="black" stroke-width="0.2" data-x="539.440566" data-y="469.504272" data-w="30.000000" data-h="30.000000" data-rotation="0.708249"/>
    <rect x="30.0006" y="0.0647" width="30.000000" height="30.000000" transform="rotate(90.000000 45.0006 15.0647)" fill="#ccffff" stroke="black" stroke-width="0.2" data-x="473.290863" data-y="394.209800" data-w="30.000000" data-h="30.000000" data-rotation="1.570796"/>
    <rect x="283.4196" y="111.7079" width="30.000000" height="30.000000" transform="rotate(-90.000000 298.4196 126.7079)" fill="#ccffff" stroke="black" stroke-width="0.2" data-x="726.709888" data-y="505.853039" data-w="30.000000" data-h="30.000000" data-rotation="-1.570796"/>
    <rect x="156.1677" y="102.8390" width="30.000000" height="30.000000" transform="rotate(-48.743811 171.1677 117.8390)" fill="#ccffff" stroke="black" stroke-width="0.2" data-x="599.458010" data-y="496.984150" data-w="30.000000" data-h="30.000000" data-rotation="-0.850740"/>
    <rect x="218.9647" y="30.0001" width="30.000000" height="30.000000" transform="rotate(180.000000 233.9647 45.0001)" fill="#ccffff" stroke="black" stroke-width="0.2" data-x="662.254967" data-y="424.145265" data-w="30.000000" data-h="30.000000" data-rotation="3.141593"/>
    <rect x="29.9997" y="81.7093" width="30.000000" height="30.000000" transform="rotate(270.000000 44.9997 96.7093)" fill="#ccffff" stroke="black" stroke-width="0.2" data-x="473.289998" data-y="475.854430" data-w="30.000000" data-h="30.000000" data-rotation="4.712389"/>
    <rect x="283.4197" y="0.4947" width="30.000000" height="30.000000" transform="rotate(180.000000 298.4197 15.4947)" fill="#ccffff" stroke="black" stroke-width="0.2" data-x="726.709947" data-y="394.639830" data-w="30.000000" data-h="30.000000" data-rotation="3.141593"/>
    <rect x="213.22" y="82.7556" width="30.000000" height="30.000000" transform="rotate(401.257069 228.22 97.7556)" fill="#ccffff" stroke="black" stroke-width="0.2" data-x="656.510330" data-y="476.900774" data-w="30.000000" data-h="30.000000" data-rotation="7.003257"/>
    <rect x="175.8635" y="32.8393" width="30.000000" height="30.000000" transform="rotate(40.810294 190.8635 47.8393)" fill="#ccffff" stroke="black" stroke-width="0.2" data-x="619.153747" data-y="426.984407" data-w="30.000000" data-h="30.000000" data-rotation="0.712274"/>
    <rect x="0" y="0" width="30.000000" height="30.000000" transform="rotate(0.000000 15 15)" fill="#ccffff" stroke="black" stroke-width="0.2" data-x="0" data-y="0" data-w="30.000000" data-h="30.000000" data-rotation="0.000000"/>
    <rect x="0" y="30" width="30.000000" height="30.000000" transform="rotate(0.000000 15 45)" fill="#ccffff" stroke="black" stroke-width="0.2" data-x="0" data-y="30" data-w="30.000000" data-h="30.000000" data-rotation="0.000000"/>
    <rect x="0" y="60" width="30.000000" height="30.000000" transform="rotate(0.000000 15 75)" fill="#ccffff" stroke="black" stroke-width="0.2" data-x="0" data-y="60" data-w="30.000000" data-h="30.000000" data-rotation="0.000000"/>
    <rect x="0" y="90" width="30.000000" height="30.000000" transform="rotate(0.000000 15 105)" fill="#ccffff" stroke="black" stroke-width="0.2" data-x="0" data-y="90" data-w="30.000000" data-h="30.000000" data-rotation="0.000000"/>
    <rect x="313.419425802432" y="0" width="30.000000" height="30.000000" transform="rotate(0.000000 328.419425802432 15)" fill="#ccffff" stroke="black" stroke-width="0.2" data-x="313.419425802432" data-y="0" data-w="30.000000" data-h="30.000000" data-rotation="0.000000"/>
    <rect x="313.419425802432" y="30" width="30.000000" height="30.000000" transform="rotate(0.000000 328.419425802432 45)" fill="#ccffff" stroke="black" stroke-width="0.2" data-x="313.419425802432" data-y="30" data-w="30.000000" data-h="30.000000" data-rotation="0.000000"/>
    <rect x="313.419425802432" y="60" width="30.000000" height="30.000000" transform="rotate(0.000000 328.419425802432 75)" fill="#ccffff" stroke="black" stroke-width="0.2" data-x="313.419425802432" data-y="60" data-w="30.000000" data-h="30.000000" data-rotation="0.000000"/>
    <rect x="313.419425802432" y="90" width="30.000000" height="30.000000" transform="rotate(0.000000 328.419425802432 105)" fill="#ccffff" stroke="black" stroke-width="0.2" data-x="313.419425802432" data-y="90" data-w="30.000000" data-h="30.000000" data-rotation="0.000000"/>
    <rect x="0" y="141.709712901216" width="30.000000" height="30.000000" transform="rotate(0.000000 15 156.709712901216)" fill="#ccffff" stroke="black" stroke-width="0.2" data-x="0" data-y="141.709712901216" data-w="30.000000" data-h="30.000000" data-rotation="0.000000"/>
    <rect x="30" y="141.709712901216" width="30.000000" height="30.000000" transform="rotate(0.000000 45 156.709712901216)" fill="#ccffff" stroke="black" stroke-width="0.2" data-x="30" data-y="141.709712901216" data-w="30.000000" data-h="30.000000" data-rotation="0.000000"/>
    <rect x="60" y="141.709712901216" width="30.000000" height="30.000000" transform="rotate(0.000000 75 156.709712901216)" fill="#ccffff" stroke="black" stroke-width="0.2" data-x="60" data-y="141.709712901216" data-w="30.000000" data-h="30.000000" data-rotation="0.000000"/>
    <rect x="90" y="141.709712901216" width="30.000000" height="30.000000" transform="rotate(0.000000 105 156.709712901216)" fill="#ccffff" stroke="black" stroke-width="0.2" data-x="90" data-y="141.709712901216" data-w="30.000000" data-h="30.000000" data-rotation="0.000000"/>
    <rect x="120" y="141.709712901216" width="30.000000" height="30.000000" transform="rotate(0.000000 135 156.709712901216)" fill="#ccffff" stroke="black" stroke-width="0.2" data-x="120" data-y="141.709712901216" data-w="30.000000" data-h="30.000000" data-rotation="0.000000"/>
    <rect x="150" y="141.709712901216" width="30.000000" height="30.000000" transform="rotate(0.000000 165 156.709712901216)" fill="#ccffff" stroke="black" stroke-width="0.2" data-x="150" data-y="141.709712901216" data-w="30.000000" data-h="30.000000" data-rotation="0.000000"/>
    <rect x="180" y="141.709712901216" width="30.000000" height="30.000000" transform="rotate(0.000000 195 156.709712901216)" fill="#ccffff" stroke="black" stroke-width="0.2" data-x="180" data-y="141.709712901216" data-w="30.000000" data-h="30.000000" data-rotation="0.000000"/>
    <rect x="210" y="141.709712901216" width="30.000000" height="30.000000" transform="rotate(0.000000 225 156.709712901216)" fill="#ccffff" stroke="black" stroke-width="0.2" data-x="210" data-y="141.709712901216" data-w="30.000000" data-h="30.000000" data-rotation="0.000000"/>
    <rect x="240" y="141.709712901216" width="30.000000" height="30.000000" transform="rotate(0.000000 255 156.709712901216)" fill="#ccffff" stroke="black" stroke-width="0.2" data-x="240" data-y="141.709712901216" data-w="30.000000" data-h="30.000000" data-rotation="0.000000"/>
    <rect x="270" y="141.709712901216" width="30.000000" height="30.000000" transform="rotate(0.000000 285 156.709712901216)" fill="#ccffff" stroke="black" stroke-width="0.2" data-x="270" data-y="141.709712901216" data-w="30.000000" data-h="30.000000" data-rotation="0.000000"/>
    <rect x="313.419425802432" y="141.709712901216" width="30.000000" height="30.000000" transform="rotate(0.000000 328.419425802432 156.709712901216)" fill="#ccffff" stroke="black" stroke-width="0.2" data-x="313.419425802432" data-y="141.709712901216" data-w="30.000000" data-h="30.000000" data-rotation="0.000000"/>
  </g>
</svg>